<?xml version="1.0" encoding="UTF-8"?>
<svg version="1.1" xmlns="http://www.w3.org/2000/svg" width="1000" height="1000">
<path d="M0 0 C2.63932722 -0.00418023 5.27862862 -0.00954111 7.91794807 -0.01631981 C13.62338315 -0.02860438 19.3287359 -0.02993504 25.03417969 -0.02376938 C33.5190705 -0.01462489 42.00388605 -0.02275295 50.48877112 -0.03406062 C65.65002755 -0.05366942 80.81124969 -0.05608603 95.97251579 -0.05086542 C109.24395817 -0.04629815 122.51538704 -0.04691998 135.78682899 -0.05270576 C137.57097376 -0.05346265 139.35511854 -0.05421863 141.13926331 -0.05497371 C143.82822825 -0.05611898 146.5171932 -0.05726886 149.20615814 -0.05843295 C174.18760656 -0.06912925 199.1690505 -0.07387222 224.1505003 -0.06596279 C225.09108008 -0.06566562 226.03165987 -0.06536844 227.00074207 -0.06506227 C234.63759446 -0.06261364 242.27444679 -0.0600019 249.91129911 -0.05737813 C279.68802393 -0.04727916 309.46469234 -0.05562802 339.2414093 -0.07887268 C372.74306928 -0.10498322 406.24469532 -0.117783 439.74636585 -0.11068493 C443.3231165 -0.10996894 446.89986715 -0.10929454 450.47661781 -0.10864449 C451.7975189 -0.10838977 451.7975189 -0.10838977 453.14510486 -0.10812991 C466.39972483 -0.1058333 479.65431314 -0.11377339 492.90892601 -0.12693596 C507.99519538 -0.14189132 523.08139086 -0.14263162 538.16765871 -0.12486505 C546.59423981 -0.11534808 555.02064825 -0.11664188 563.44721758 -0.13409974 C569.09534695 -0.14467384 574.74334629 -0.1403716 580.39146307 -0.1246197 C583.59666668 -0.11607806 586.80147407 -0.1156125 590.00667091 -0.12888902 C646.70086003 -0.34682346 697.06870795 20.41493452 737.46626282 60.01268005 C770.18567345 92.7984745 793.45177352 141.63885523 793.60305262 188.41187355 C793.60128314 189.40929456 793.59951367 190.40671557 793.59769058 191.43436146 C793.60076953 193.0617892 793.60076953 193.0617892 793.60391068 194.72209427 C793.6095666 198.35882871 793.60812517 201.99552512 793.60670471 205.63226318 C793.60928916 208.26565049 793.6122639 210.89903476 793.61570811 213.53242081 C793.62327081 220.01169071 793.62548029 226.49095236 793.62603717 232.9702262 C793.62695253 240.73335079 793.63362523 248.4964678 793.64038399 256.25958911 C793.65642932 275.02188927 793.66234579 293.78418861 793.66713274 312.5464944 C793.66947035 321.42684102 793.6730732 330.30718701 793.67682812 339.18753313 C793.68966287 369.60086571 793.70038169 400.01419792 793.70383072 430.42753315 C793.70405235 432.33604211 793.70427413 434.24455107 793.70449607 436.15306003 C793.70471671 438.06611521 793.70493719 439.97917039 793.70515752 441.89222556 C793.70560006 445.72998448 793.70604718 449.5677434 793.70649719 453.40550232 C793.70660658 454.35704049 793.70671597 455.30857865 793.70682868 456.28895131 C793.71045786 487.13017715 793.72637307 517.97137947 793.74968756 548.81259631 C793.7743061 581.43868279 793.78800451 614.06475583 793.78919864 646.69085187 C793.78937008 650.27526709 793.78958551 653.8596823 793.78983307 657.44409752 C793.78988884 658.32664686 793.78994461 659.20919621 793.79000206 660.11848947 C793.7911508 674.2968005 793.80215775 688.47508732 793.81672012 702.65339019 C793.83111554 716.91624789 793.83430497 731.17907468 793.82628015 745.44193766 C793.82183809 753.90503863 793.82562717 762.36803953 793.84151865 770.83112726 C793.85132113 776.49759938 793.85004056 782.16400195 793.84008242 787.83047354 C793.83472801 791.05040693 793.83555149 794.27011319 793.84659114 797.49003748 C793.90422944 815.44799969 792.80074511 832.87555453 788.27876282 850.32518005 C787.96902527 851.53512634 787.96902527 851.53512634 787.6530304 852.76951599 C783.47844266 868.36304974 777.15619688 883.22117451 769.46626282 897.38768005 C768.9029425 898.43053162 768.33962219 899.47338318 767.75923157 900.5478363 C742.04297062 946.25894182 697.57836373 980.09267472 647.21626282 994.20018005 C632.45784643 998.16829838 617.7122683 1000.54623775 602.41958141 1000.51910782 C601.33462959 1000.52116045 600.24967776 1000.52321309 599.1318486 1000.52532792 C595.49511416 1000.53098384 591.85841775 1000.5295424 588.22167969 1000.52812195 C585.58829238 1000.5307064 582.95490811 1000.53368114 580.32152206 1000.53712535 C573.84225216 1000.54468805 567.36299051 1000.54689753 560.88371667 1000.5474544 C553.12059208 1000.54836977 545.35747507 1000.55504247 537.59435376 1000.56180123 C518.8320536 1000.57784656 500.06975426 1000.58376302 481.30744847 1000.58854998 C472.42710185 1000.59088758 463.54675587 1000.59449044 454.66640974 1000.59824535 C424.25307717 1000.6110801 393.83974495 1000.62179892 363.42640972 1000.62524796 C361.51790076 1000.62546959 359.6093918 1000.62569137 357.70088284 1000.62591331 C355.78782766 1000.62613395 353.87477249 1000.62635443 351.96171731 1000.62657475 C348.12395839 1000.6270173 344.28619947 1000.62746442 340.44844055 1000.62791443 C339.49690239 1000.62802382 338.54536422 1000.62813321 337.56499156 1000.62824592 C306.72376572 1000.6318751 275.8825634 1000.64779031 245.04134656 1000.67110479 C212.41526008 1000.69572334 179.78918704 1000.70942175 147.163091 1000.71061587 C143.57867578 1000.71078732 139.99426057 1000.71100275 136.40984535 1000.71125031 C135.08602134 1000.71133396 135.08602134 1000.71133396 133.7354534 1000.7114193 C119.55714237 1000.71256804 105.37885555 1000.72357498 91.20055268 1000.73813736 C76.93769498 1000.75253278 62.67486819 1000.7557222 48.41200521 1000.74769738 C39.94890424 1000.74325533 31.48590334 1000.7470444 23.02281561 1000.76293589 C17.35634349 1000.77273837 11.68994092 1000.7714578 6.02346933 1000.76149966 C2.80353594 1000.75614524 -0.41617032 1000.75696873 -3.63609461 1000.76800838 C-21.59405682 1000.82564668 -39.02161165 999.72216234 -56.47123718 995.20018005 C-57.27786804 994.99368835 -58.0844989 994.78719666 -58.91557312 994.57444763 C-74.50910687 990.3998599 -89.36723164 984.07761412 -103.53373718 976.38768005 C-104.57658875 975.82435974 -105.61944031 975.26103943 -106.69389343 974.6806488 C-152.40499895 948.96438786 -186.23873185 904.49978097 -200.34623718 854.13768005 C-204.31435551 839.37926367 -206.69229488 824.63368554 -206.66516495 809.34099865 C-206.66721758 808.25604682 -206.66927022 807.171095 -206.67138505 806.05326584 C-206.67704096 802.41653139 -206.67559953 798.77983499 -206.67417908 795.14309692 C-206.67676353 792.50970962 -206.67973827 789.87632535 -206.68318248 787.24293929 C-206.69074517 780.7636694 -206.69295466 774.28440775 -206.69351153 767.8051339 C-206.6944269 760.04200932 -206.7010996 752.27889231 -206.70785836 744.515771 C-206.72390369 725.75347083 -206.72982015 706.9911715 -206.73460711 688.22886571 C-206.73694471 679.34851908 -206.74054756 670.4681731 -206.74430248 661.58782698 C-206.75713723 631.1744944 -206.76785605 600.76116218 -206.77130508 570.34782696 C-206.77152671 568.439318 -206.7717485 566.53080904 -206.77197044 564.62230008 C-206.77219107 562.7092449 -206.77241156 560.79618972 -206.77263188 558.88313454 C-206.77307443 555.04537562 -206.77352155 551.20761671 -206.77397156 547.36985779 C-206.77408095 546.41831962 -206.77419034 545.46678146 -206.77430305 544.4864088 C-206.77793223 513.64518296 -206.79384744 482.80398064 -206.81716192 451.9627638 C-206.84178047 419.33667732 -206.85547888 386.71060428 -206.856673 354.08450824 C-206.85684445 350.50009302 -206.85705987 346.9156778 -206.85730743 343.33126259 C-206.8573632 342.44871324 -206.85741897 341.5661639 -206.85747643 340.65687064 C-206.85862517 326.4785596 -206.86963211 312.30027279 -206.88419449 298.12196992 C-206.89858991 283.85911222 -206.90177933 269.59628542 -206.89375451 255.33342244 C-206.88931246 246.87032148 -206.89310153 238.40732058 -206.90899302 229.94423284 C-206.9187955 224.27776073 -206.91751493 218.61135815 -206.90755679 212.94488656 C-206.90220237 209.72495317 -206.90302585 206.50524692 -206.91406551 203.28532263 C-206.97170381 185.32736042 -205.86821947 167.89980558 -201.34623718 150.45018005 C-201.13974548 149.64354919 -200.93325378 148.83691833 -200.72050476 148.00584412 C-196.54591703 132.41231036 -190.22367125 117.55418559 -182.53373718 103.38768005 C-181.97041687 102.34482849 -181.40709656 101.30197693 -180.82670593 100.2275238 C-155.79200479 55.7279028 -112.74876943 22.06654966 -63.85014343 7.6572113 C-61.91387546 7.12063767 -59.97508578 6.59307056 -58.03373718 6.07518005 C-56.75647766 5.72979187 -56.75647766 5.72979187 -55.45341492 5.37742615 C-37.05168886 0.73570271 -18.89743626 -0.04910561 0 0 Z " fill="#000000" transform="translate(206.5337371826172,-0.3876800537109375)"/>
<path d="M0 0 C38.61 0 77.22 0 117 0 C117 68.31 117 136.62 117 207 C194.88 207 272.76 207 353 207 C353 244.29 353 281.58 353 320 C275.12 320 197.24 320 117 320 C112.59765119 380.88941184 112.59765119 380.88941184 124.1875 457.25 C124.48865723 457.9932251 124.78981445 458.7364502 125.10009766 459.50219727 C135.41785918 484.10955507 154.98643812 503.03331814 179.4375 513.375 C197.53861308 519.83978639 214.40031443 520.59393145 233.44958723 520.54880548 C237.42551005 520.5438113 241.40134026 520.56200607 245.37722778 520.57722473 C252.24686975 520.60042083 259.11640649 520.60929045 265.98608589 520.60811615 C275.91816704 520.60643956 285.85010884 520.62685611 295.78215265 520.65247145 C311.90057869 520.69345057 328.0189795 520.71683939 344.13745117 520.72900391 C359.78461123 520.74085076 375.43172385 520.76108282 391.07885742 520.79248047 C392.52831832 520.79538462 392.52831832 520.79538462 394.00706125 520.79834744 C398.85528391 520.80811275 403.70350621 520.81804172 408.55172837 520.82805204 C448.7011447 520.91073884 488.85051216 520.96153978 529 521 C529 554.66 529 588.32 529 623 C480.62482623 623.04412338 432.2496715 623.08103924 383.87448335 623.10213066 C378.15826556 623.10463195 372.44204781 623.10722061 366.72583008 623.10986328 C365.58787451 623.1103879 364.44991895 623.11091252 363.27747988 623.11145304 C344.87229049 623.12014635 326.46711364 623.1359104 308.06193168 623.15430559 C289.164653 623.17303454 270.26738087 623.18412305 251.37009329 623.18817699 C239.71742057 623.19091584 228.06478332 623.19955407 216.41212153 623.21583293 C208.41229817 623.2264368 200.41249304 623.22959294 192.41266317 623.22700275 C187.8030513 623.22572675 183.19350123 623.22762851 178.58390045 623.23841095 C174.35229471 623.24823621 170.12079157 623.24857563 165.88918083 623.24179779 C164.36937087 623.2409617 162.84955416 623.24341962 161.32975722 623.24976636 C147.06913171 623.3057898 132.8948915 622.32162299 119.125 618.375 C118.2057373 618.11630127 117.28647461 617.85760254 116.33935547 617.59106445 C75.6288935 605.69996907 40.7977098 578.38734508 19.7199707 541.52783203 C5.27248051 515.04743345 -0.51038263 486.37268495 -0.36076355 456.48614502 C-0.36207554 454.50135288 -0.36470916 452.51656127 -0.36853105 450.53177238 C-0.37517071 445.13834031 -0.36333437 439.74509037 -0.34819686 434.35168147 C-0.33514552 428.51285146 -0.33963234 422.67403033 -0.34190369 416.83518982 C-0.34347071 406.73908336 -0.33412147 396.64303541 -0.31719017 386.54694366 C-0.29272692 371.95000685 -0.28497742 357.35308941 -0.2812262 342.75613591 C-0.27493976 319.06901617 -0.25476921 295.38192685 -0.22631836 271.69482422 C-0.19872603 248.69580242 -0.17749436 225.69678897 -0.16479492 202.69775391 C-0.16440034 201.98771976 -0.16400576 201.27768561 -0.16359923 200.54613528 C-0.15964337 193.41510597 -0.15581597 186.2840766 -0.15208265 179.15304718 C-0.14447582 164.62878475 -0.13601206 150.10452287 -0.12702942 135.58026123 C-0.12641161 134.5787526 -0.12641161 134.5787526 -0.12578133 133.55701148 C-0.09822054 89.03799234 -0.04875657 44.51900127 0 0 Z " fill="#FEFEFE" transform="translate(177,253)"/>
<path d="M0 0 C48.8507085 -0.06619751 97.70137452 -0.12156649 146.55211507 -0.15319599 C152.32584047 -0.15694789 158.09956576 -0.16083088 163.87329102 -0.16479492 C165.02268442 -0.16558185 166.17207782 -0.16636878 167.35630133 -0.16717956 C185.94121052 -0.18021596 204.52609174 -0.20386004 223.11098436 -0.23145839 C242.1958538 -0.25956179 261.28070863 -0.27618668 280.3655979 -0.28226548 C292.13190886 -0.2863717 303.89814071 -0.29931774 315.6644273 -0.3237494 C323.74463131 -0.33966756 331.82479471 -0.34438666 339.90501324 -0.34050413 C344.55945866 -0.33859201 349.21376633 -0.34142058 353.86818695 -0.35761642 C396.20231529 -0.49758038 436.24901884 6.34804125 470 34 C470.81791016 34.66781494 470.81791016 34.66781494 471.65234375 35.34912109 C487.30377681 48.18347366 499.66518973 62.59501151 510 80 C510.34659668 80.58330078 510.69319336 81.16660156 511.05029297 81.76757812 C526.56977673 108.33075277 531.34071979 136.89574654 531.24050903 167.26698303 C531.24138311 169.2615597 531.2431378 171.25613615 531.24568737 173.25071138 C531.25012519 178.68508784 531.24220672 184.11938435 531.23213124 189.55375063 C531.22344721 195.43148888 531.22642039 201.30922308 531.22793579 207.18696594 C531.22898152 217.35513936 531.2227376 227.523287 531.21146011 237.69145393 C531.199649 248.34772931 531.19192261 259.00399434 531.18975449 269.66027641 C531.18961701 270.32455429 531.18947953 270.98883217 531.18933788 271.67323969 C531.18866115 275.04720894 531.18805841 278.4211782 531.18748413 281.79514747 C531.18329098 305.65030387 531.16983774 329.50544685 531.15087891 353.3605957 C531.13248988 376.52563404 531.11833255 399.69066871 531.10986328 422.85571289 C531.10960023 423.57062378 531.10933718 424.28553468 531.10906615 425.02210954 C531.10642896 432.20198794 531.10387735 439.38186636 531.10138843 446.56174482 C531.09631694 461.18605578 531.09067444 475.81036651 531.08468628 490.43467712 C531.0844117 491.10697788 531.08413712 491.77927863 531.08385422 492.47195214 C531.06547423 537.31464145 531.03249923 582.15731841 531 627 C491.4 627 451.8 627 411 627 C410.9906543 614.12363525 410.98130859 601.24727051 410.97167969 587.98071289 C410.93895185 546.7518137 410.88665207 505.52296004 410.82207905 464.29409892 C410.81206194 457.88690276 410.80221775 451.47970635 410.79248047 445.07250977 C410.7905391 443.79698592 410.78859772 442.52146208 410.78659752 441.20728599 C410.755601 420.57115422 410.73860342 399.93503357 410.72680578 379.29888291 C410.71438206 358.1144267 410.68685308 336.93002869 410.64538693 315.74560922 C410.62028655 302.68029253 410.6068802 289.61507239 410.60857043 276.54973125 C410.60860025 267.58272629 410.59391921 258.61581947 410.56783572 249.64885277 C410.55323027 244.48023024 410.54495204 239.31180896 410.55419731 234.1431694 C410.56253626 229.40072537 410.55218788 224.6586842 410.52766338 219.91629963 C410.52201946 218.21076834 410.5229328 216.50519834 410.53148755 214.79967917 C410.66160578 186.40022313 400.50826876 160.71639083 380.37109375 140.33984375 C360.01605321 121.14298474 334.85722428 112.67742597 307.25028992 112.7215271 C305.91500588 112.71651051 304.57972487 112.71063079 303.24444801 112.70397437 C299.6138984 112.68832501 295.98342647 112.6847521 292.35284722 112.68332577 C288.42322833 112.67960509 284.49365077 112.6644366 280.5640564 112.65071106 C273.76858142 112.6285176 266.97312131 112.61345692 260.17761803 112.60334396 C250.3526607 112.58871215 240.52775518 112.5631629 230.70282838 112.53501268 C214.75966302 112.48962619 198.81649017 112.45297785 182.87329102 112.421875 C167.3928089 112.39165602 151.91234507 112.35729043 136.43188477 112.31738281 C135.47647459 112.31492126 134.52106442 112.31245972 133.53670242 112.30992357 C128.74333361 112.29754832 123.94996503 112.28509191 119.15659654 112.27259517 C79.43775269 112.16914939 39.71889608 112.08152496 0 112 C0 75.04 0 38.08 0 0 Z " fill="#FEFEFE" transform="translate(295,124)"/>
</svg>
